<?xml version="1.0" encoding="UTF-8"?>
<svg id="Layer_1" data-name="Layer 1" xmlns="http://www.w3.org/2000/svg" version="1.1" viewBox="0 0 913 321.3">
  <defs>
    <style>
      .cls-1 {
        font-family: Roboto-Medium, Roboto;
        font-weight: 500;
      }

      .cls-2 {
        font-family: Roboto-Regular, Roboto;
      }

      .cls-3 {
        fill: none;
      }

      .cls-3, .cls-4, .cls-5, .cls-6, .cls-7, .cls-8 {
        stroke-width: 0px;
      }

      .cls-9 {
        font-size: 156px;
      }

      .cls-9, .cls-5 {
        fill: #000;
      }

      .cls-4 {
        fill: #0460d9;
      }

      .cls-6 {
        fill: #e9de0e;
      }

      .cls-7 {
        fill: #e72361;
      }

      .cls-10 {
        font-family: Roboto-Light, Roboto;
        font-weight: 300;
      }

      .cls-8 {
        fill: #0c6;
      }
    </style>
  </defs>
  <path class="cls-3" d="M143,233c41.6,7.1,81.2-21,88.3-62.6s-21-81.2-62.6-88.3-81.2,21-88.3,62.6c-7.1,41.6,21,81.2,62.6,88.3h0ZM167.2,91.3c36.5,6.2,61.1,41,54.9,77.5-6.2,36.5-41,61.1-77.5,54.9-36.5-6.2-61.1-41-54.9-77.5s41-61.1,77.5-54.9h0Z"/>
  <path class="cls-3" d="M169.5,77.8c44,7.5,73.6,49.4,66.1,93.4-7.5,44-49.4,73.6-93.4,66.1s-73.6-49.4-66.1-93.4,49.4-73.6,93.4-66.1h0Z"/>
  <path class="cls-3" d="M94.2,147c5.8-34.1,38.1-57,72.2-51.1,34.1,5.8,57,38.1,51.1,72.2-5.8,34.1-38.1,57-72.2,51.1-34.1-5.8-57-38.1-51.1-72.2h0Z"/>
  <path class="cls-5" d="M144.6,223.7c36.5,6.2,71.3-18.4,77.5-54.9,6.2-36.5-18.4-71.3-54.9-77.5s-71.3,18.4-77.5,54.9c-6.2,36.5,18.4,71.3,54.9,77.5h0ZM166.4,95.9c34,5.8,56.9,38.2,51.1,72.2-5.8,34-38.2,56.9-72.2,51.1s-56.9-38.2-51.1-72.2,38.2-56.9,72.2-51.1h0Z"/>
  <path class="cls-5" d="M142.3,237.3c44,7.5,85.9-22.2,93.4-66.1,7.5-44-22.2-85.9-66.1-93.4s-85.9,22.2-93.4,66.1c-7.5,44,22.2,85.9,66.1,93.4h0ZM168.7,82.1c41.6,7.1,69.7,46.7,62.6,88.3-7.1,41.6-46.7,69.7-88.3,62.6-41.6-7.1-69.7-46.7-62.6-88.3,7.1-41.6,46.7-69.7,88.3-62.6h0Z"/>
  <path class="cls-7" d="M171.5,275.9h0c-.3-2.2-3.4-3.4-6.9-2.9s-6.2,2.4-6.1,4.5h0c0,.1,1,25.2,1,25.2,5.3-.2,10.6-.7,15.8-1.5-1.3-8.4-2.5-16.9-3.8-25.3h0Z"/>
  <path class="cls-7" d="M72.5,75.9c-1.2-1.9-.3-4.8,2.8-7.3,3-2.5,6.2-2.6,8.1-1.6,0,0-13.6-17-19-23.9-4.5,3.5-8.8,7.3-12.8,11.3,6.1,6.1,21,21.5,21,21.5h-.1Z"/>
  <path class="cls-4" d="M85.4,60.4h0c1.3,1.7,4.9,1.3,8.3-.8,3.5-2.1,5.7-5.2,4.7-7.1h0c0-.2,0,0,0,0-4.2-7.8-8.4-15.6-12.6-23.5,0,0-.2,0-.2.1-5.5,2.9-10.7,6.2-15.6,9.6l15.3,21.5h0v.3Z"/>
  <path class="cls-6" d="M60.4,88.4c-1.6-1.3-1.6-4.4.9-7.1s5.5-3.7,7.1-2.4c0,0-15.2-14-21.5-19.8-3.6,3.9-7,8-10.1,12.3,6.8,5,23.6,17,23.6,17h0Z"/>
  <path class="cls-6" d="M41.7,197.3c-2,.6-4.5-1.4-5.5-4.5-1-3.2,0-6.1,1.9-6.7h0c-8.6,2.1-17.2,4.1-25.7,6.2,1.1,4.6,2.5,9.2,4.1,13.8,8.4-2.9,16.8-5.8,25.2-8.7h0Z"/>
  <path class="cls-4" d="M48.3,212.4c-1.9.9-4.6-.8-6-3.8s-.8-6.1,1-6.9h0c-8.3,3.3-16.6,6.5-24.9,9.8,1.7,4.4,3.7,8.8,5.9,13.2,8-4.1,16-8.1,23.9-12.2h.1Z"/>
  <path class="cls-4" d="M42.1,128c-1.2-2.3-2.3-4.6-3.3-7-7.8-2.5-15.6-5-23.4-7.5-1.5,4.5-2.7,9.1-3.7,13.8,8.1,1.7,16.2,3.5,24.2,5.2,2-1.6,4.1-3.1,6.2-4.5h0Z"/>
  <path class="cls-4" d="M56.3,226.1c.3-2.6.6-5.1,1-7.6-2.4-.7-4.8-1.6-7.2-2.5-7.8,4.3-15.7,8.7-23.5,13,2.4,4.3,4.9,8.4,7.6,12.3l22-15.2h.1Z"/>
  <path class="cls-6" d="M40.7,175c-2-1.6-3.9-3.3-5.8-5.1l-25.9,2.6c.5,4.7,1.2,9.4,2.1,14.2,8.6-1.7,17.2-3.4,25.8-5.1,1.2-2.2,2.5-4.4,3.8-6.5h0Z"/>
  <path class="cls-4" d="M40.4,116.4h0c2,.7,4.5-1.1,5.8-4.1s.9-6.1-1-7h0c-7.4-3.6-14.8-7.1-22.2-10.7-2.1,4.4-4,8.8-5.6,13.4l23.1,8.4h0Z"/>
  <path class="cls-4" d="M34.1,148.8h0c2.1.2,4-2.2,4.3-5.4.3-3.1-1-5.9-3.1-6.3h-.2c-8.2-1.5-16.4-2.9-24.5-4.3-.8,4.6-1.4,9.3-1.8,14.1l25.2,1.9h0Z"/>
  <path class="cls-4" d="M66.4,239.1h0c1.5-1.4,1.1-4.5-.8-7-1.9-2.4-4.8-3.5-6.5-2.2h0c-7.1,5.3-14.3,10.7-21.4,16,2.9,3.9,6,7.6,9.2,11.1,6.5-6,13-11.9,19.5-17.9h0Z"/>
  <path class="cls-6" d="M91,260.8c-1.2,1.7-4.3,1.7-6.9-.3s-3.7-5-2.5-6.7h0c-5.2,6.8-10.5,13.7-15.7,20.5,3.8,2.9,7.7,5.6,11.7,8.1,4.5-7.2,8.9-14.4,13.4-21.6h0Z"/>
  <path class="cls-7" d="M76.8,249.3c-.4-2.6-.7-5.1-.9-7.7-2.5,0-5-.2-7.5-.5l-18.7,18.6c3.4,3.4,6.9,6.6,10.6,9.7l16.6-20h0Z"/>
  <path class="cls-6" d="M105.3,269h0c.9-2.1-.7-4.7-3.5-6.2s-5.8-1.3-6.8.5h0v.2c-4.2,7.3-8.3,14.6-12.5,22,4.1,2.3,8.3,4.5,12.7,6.4,3.4-7.6,6.8-15.2,10.2-22.8h0Z"/>
  <path class="cls-4" d="M137.2,278.5c-.4,2.1-3.4,3.4-6.7,2.7-3.3-.7-5.5-3-5.1-5h0c-2,7.9-4,15.9-6,23.8,4.7,1.2,9.4,2.1,14.3,2.8l3.6-24.4h-.1Z"/>
  <path class="cls-6" d="M183.4,269.8c-1.7,2.3-3.6,4.5-5.5,6.6l4.9,25.3c5.5-1.1,11-2.5,16.5-4.3-2.7-8.3-5.3-16.7-8-25-2.8-.8-5.4-1.7-8-2.6h.1Z"/>
  <path class="cls-6" d="M210.6,263.9h0c-1-2-4.8-1.9-8.5-.2-3.7,1.7-6,4.5-5.3,6.5h0v.2c3.1,8.2,6.2,16.5,9.2,24.7,5.7-2.2,11.4-4.7,16.9-7.6-4.1-7.8-8.3-15.7-12.4-23.5h.1Z"/>
  <path class="cls-6" d="M46.2,93c2.6-1,5.2-1.9,7.9-2.6l-20.8-13.9c-2.8,4.2-5.4,8.5-7.7,12.9,7.3,3.9,14.5,7.7,21.8,11.6-.5-2.6-.9-5.2-1.2-7.9h0Z"/>
  <path class="cls-7" d="M28.9,159.4c1.6-2.1,3.2-4,4.9-5.9-8.5-.3-16.9-.6-25.4-.9-.2,4.7-.1,9.5.1,14.2,8.6-.5,17.2-1,25.8-1.5-1.8-1.8-3.7-3.8-5.4-5.8h0Z"/>
  <path class="cls-4" d="M113.4,277.9c-1.4-2.3-2.7-4.6-3.9-6.9-3.1,7.7-6.2,15.4-9.2,23,4.4,1.8,8.9,3.3,13.5,4.6,2.3-7.9,4.6-15.7,6.9-23.6-2.4,1-4.8,2-7.3,2.9h0Z"/>
  <path class="cls-4" d="M148,284.6c-2.1-1.7-4.1-3.6-5.9-5.4-.9,8.2-1.7,16.4-2.6,24.5,5,.5,10,.8,15,.8v-25c-2.1,1.7-4.3,3.4-6.6,5h.1Z"/>
  <path class="cls-8" d="M50.8,108.1h0c1.8,1,2.2,3.9,1.1,6.7s-3.5,4.4-5.6,3.8h0c8.5,3.1,17,6.2,25.5,9.3,1-2.7,2.1-5.4,3.4-8.1-8.1-3.9-16.3-7.8-24.4-11.7Z"/>
  <path class="cls-8" d="M41.4,138.2h0c2,.4,3.3,3.1,3,6s-2,5.1-4.1,5.1h0l26.4,2c.2-2.9.6-5.7,1.1-8.5-8.8-1.5-17.6-3.1-26.4-4.6h0Z"/>
  <path class="cls-6" d="M64.1,226.2h0c1.7-1.1,4.4-.2,6.2,2.1,1.8,2.3,2.2,5.2.7,6.6h0c6.2-5.7,12.4-11.4,18.7-17.1-1.9-2.1-3.8-4.4-5.5-6.7-6.7,5-13.4,10.1-20.1,15.1h0Z"/>
  <path class="cls-7" d="M96.9,256.3h0c1.1-1.7,4-1.9,6.5-.5s4,3.9,3.3,5.9h0c3.6-8.2,7.3-16.3,10.9-24.5-2.6-1.2-5.2-2.4-7.6-3.9-4.4,7.7-8.7,15.4-13.1,23h0Z"/>
  <path class="cls-6" d="M159.4,272.9h0c0-2.1,2.6-3.9,5.8-4.4,3.2-.4,6.1.7,6.5,2.7h0c-1.3-8.7-2.6-17.4-3.9-26-3.2.5-6.3.8-9.5.9.4,8.9.7,17.7,1,26.6v.2Z"/>
  <path class="cls-7" d="M193.5,262.9h0c-.6-2,1.6-4.6,5-6.2s7-1.6,8,.1h0c-3.9-7.4-7.8-14.9-11.7-22.3-3.3,1.8-6.7,3.3-10.2,4.6,3,7.9,5.9,15.9,8.9,23.8h0Z"/>
  <path class="cls-7" d="M43.1,182.9h0c-2.1.5-3.1,3.4-2.1,6.4,1,3.1,3.5,4.9,5.5,4.2h0c7.9-2.7,15.8-5.5,23.7-8.2-1-2.8-1.8-5.5-2.4-8.3-8.2,2-16.4,3.9-24.7,5.9h0Z"/>
  <path class="cls-8" d="M49.2,199.4h0c-2,.7-2.6,3.8-1.3,6.7s4.1,4.5,5.9,3.5h0c0,0,0,0,0,0,7.4-3.8,14.8-7.6,22.2-11.3-1.3-2.6-2.5-5.3-3.6-8-7.8,3-15.6,6.1-23.3,9.1h0Z"/>
  <path class="cls-7" d="M84.3,247.3h0v.2c-1.3,1.7-.4,4.7,2.2,6.6,2.6,1.9,5.6,1.9,6.8,0h0c4.6-7.6,9.3-15,13.9-22.5-2.4-1.5-4.8-3.1-7.1-4.9-5.3,6.9-10.5,13.7-15.8,20.6h0Z"/>
  <path class="cls-8" d="M126.9,270.1h0v.2c-.5,2.1,1.6,4.4,4.8,5.1,3.2.6,6.2-.8,6.4-2.9v-.2l4-26.8c-2.9-.4-5.8-1-8.6-1.7-2.2,8.8-4.4,17.6-6.6,26.3h0Z"/>
  <path class="cls-7" d="M59.3,93.9c-2.6.7-5.1,1.5-7.7,2.4.3,2.6.8,5.2,1.3,7.7,8,4.2,15.9,8.4,23.9,12.7,1.4-2.7,3-5.3,4.7-7.8-7.4-5-14.8-9.9-22.2-14.9h0Z"/>
  <path class="cls-6" d="M40.2,153.7c-1.7,1.8-3.3,3.7-4.9,5.6,1.8,1.9,3.6,3.7,5.4,5.5,8.6-.5,17.3-1,25.9-1.6-.2-2.9-.2-5.7,0-8.6-8.8-.3-17.6-.7-26.3-1h0Z"/>
  <path class="cls-8" d="M122,240.1c-3.3,8.3-6.7,16.7-10,25,1.1,2.3,2.3,4.6,3.6,6.8,2.4-.9,4.7-1.9,7-3l7.6-26c-2.8-.8-5.5-1.7-8.1-2.8h0Z"/>
  <path class="cls-8" d="M142.8,272.8c1.8,1.9,3.7,3.7,5.6,5.4,2.1-1.6,4.2-3.3,6.2-5v-26.8c-3,0-6.1-.2-9.1-.5-1,9-1.9,17.9-2.8,26.9h.1Z"/>
  <path class="cls-8" d="M70.7,131.1c-8.6-2.7-17.2-5.5-25.8-8.3,1,2.3,2.2,4.6,3.4,6.7-2.1,1.3-4.1,2.7-6.1,4.2,8.8,1.9,17.6,3.8,26.3,5.7.6-2.8,1.4-5.6,2.2-8.3h0Z"/>
  <path class="cls-7" d="M41.2,169.3c1.9,1.7,3.8,3.3,5.8,4.8-1.3,2-2.6,4.1-3.8,6.2l25-5c-.6-2.8-1-5.7-1.3-8.5-8.6.8-17.1,1.7-25.7,2.5h0Z"/>
  <path class="cls-8" d="M55.7,213c2.4.8,4.7,1.6,7,2.2-.5,2.4-.9,4.8-1.2,7.3,6.9-4.7,13.7-9.5,20.6-14.2-1.6-2.4-3.2-4.8-4.6-7.4l-21.8,12.1h0Z"/>
  <path class="cls-6" d="M74,238.2c2.5.2,4.9.3,7.3.3,0,2.5.4,5,.7,7.5,5.5-6.6,11-13.2,16.5-19.9-2.2-1.8-4.3-3.8-6.4-5.8l-18.1,17.9h0Z"/>
  <path class="cls-7" d="M175.6,268.6c1.8-2.1,3.5-4.3,5.1-6.5,2.4,1,5,1.9,7.6,2.8-2.6-8.1-5.2-16.2-7.8-24.4-3.3,1.1-6.6,1.9-9.9,2.6,1.7,8.5,3.3,17,5,25.5h0Z"/>
  <path class="cls-4" d="M117.6,46.4c-.6-2,1.4-4.4,4.6-5.4s6.1,0,6.6,2h0c-1.9-8.8-4.2-19-6.1-27.7-4.7,1-9.3,2.3-13.9,3.8,2.8,8.6,5.9,18.6,8.7,27.2h0Z"/>
  <path class="cls-4" d="M102.5,52.6h.2c-.8-1.9.8-4.6,3.9-5.9,3-1.3,6.1-.7,6.9,1.2,0,0-.6-1.4-.6-1.5-3.2-8.5-6.3-16.9-9.5-25.4-4.5,1.7-8.9,3.6-13.3,5.8,4,8.1,8.4,17.7,12.4,25.8h0Z"/>
  <path class="cls-4" d="M186.6,46.5c2.3-1.1,4.7-2.2,7.1-3.2,2.7-7.9,5.3-15.8,8-23.7-4.5-1.5-9.1-2.8-13.8-3.9-1.9,8.2-3.8,16.4-5.7,24.6,1.5,2,3,4.1,4.4,6.2h0Z"/>
  <path class="cls-6" d="M139.6,44.3c1.6-2,3.4-3.9,5.2-5.8-.7-8.8-1.4-17.5-2.2-26.3-4.7.4-9.5,1-14.2,1.9,1.6,8.8,3.2,17.5,4.8,26.3,2.2,1.2,4.4,2.5,6.4,3.9h0Z"/>
  <path class="cls-4" d="M198.2,45h0c-.7,2.1,1.1,4.6,4,5.9,2.9,1.3,6.1,1,7-.9h0v-.2c3.7-7.5,7.5-14.9,11.2-22.4-4.4-2.2-8.8-4.2-13.3-5.9-3,7.8-5.9,15.6-8.9,23.4h0Z"/>
  <path class="cls-7" d="M165.9,38.1h0c-.2,2.2,2.2,4.1,5.3,4.5,3.1.3,5.9-.9,6.4-3v-.2c1.6-8.3,3.2-16.6,4.8-24.9-4.7-.9-9.3-1.6-14.1-2-.8,8.5-1.6,17-2.4,25.6h0Z"/>
  <path class="cls-6" d="M155.3,35.5c2,1.6,4,3.3,5.8,5,.5-8.6,1-19.9,1.4-28.5-4.7-.3-9.5-.3-14.3,0,.4,8.7.7,20.2,1.1,28.9,1.9-1.8,3.8-3.6,5.9-5.3h.1Z"/>
  <path class="cls-5" d="M223.1,35.1c50.7,27.9,80.7,85.8,70.5,145.9-7.3,43-33.7,78.1-69,98l.5.8c35.5-20.1,62.1-55.4,69.5-98.7,10.3-60.5-19.9-118.8-70.9-146.8l-.5.8h-.1Z"/>
  <path class="cls-5" d="M215.4,48.1c45.4,24.8,72.4,76.5,63.2,130.4-6.5,38.3-30.1,69.6-61.5,87.4l1.1,2c32-18.1,56-50,62.7-89,9.3-54.8-18.1-107.5-64.3-132.7l-1.2,2h0Z"/>
  <path class="cls-5" d="M65,91.8l2.6,1.9c23.6-32.5,64.4-50.8,106.6-43.6,59.2,10.1,99.1,66.5,89,125.7-5.7,33.5-26.3,60.8-53.8,76.4l1.6,2.8c28.3-16,49.5-44.2,55.4-78.7,10.4-60.9-30.7-119-91.7-129.4s-85.4,11.4-109.7,44.8h0Z"/>
  <path class="cls-5" d="M77.5,101l3.1,2.3c20.1-27.8,54.8-43.3,90.8-37.2,50.4,8.6,84.4,56.6,75.8,107-4.9,28.5-22.3,51.8-45.7,65.1l1.9,3.4c24.4-13.8,42.6-38.1,47.7-67.8,9-52.5-26.5-102.6-79-111.5-37.5-6.4-73.7,9.8-94.6,38.7h0Z"/>
  <text class="cls-9" transform="translate(325.2 211.1)"><tspan class="cls-2" x="0" y="0">LIM</tspan><tspan class="cls-1" x="262.6" y="0"> </tspan><tspan class="cls-10" x="301.4" y="0">LAB</tspan></text>
</svg>