<?xml version="1.0" encoding="UTF-8"?>
<svg id="Layer_1" xmlns="http://www.w3.org/2000/svg" version="1.1" viewBox="0 0 305.9 321.3">
  <!-- Generator: Adobe Illustrator 29.1.0, SVG Export Plug-In . SVG Version: 2.1.0 Build 142)  -->
  <defs>
    <style>
      .st0 {
        fill: #fc0;
      }

      .st1 {
        fill: #c36;
      }

      .st2 {
        fill: #2a9faa;
      }

      .st3 {
        fill: #2a7fff;
      }

      .st4 {
        stroke-width: 2px;
      }

      .st4, .st5, .st6, .st7, .st8, .st9 {
        fill: none;
        stroke: #000;
        stroke-miterlimit: 10;
      }

      .st5 {
        stroke-width: 7px;
      }

      .st6 {
        stroke-width: 5px;
      }

      .st7 {
        stroke-width: 6px;
      }

      .st8 {
        stroke-width: 4px;
      }

      .st9 {
        stroke-width: 3px;
      }
    </style>
  </defs>
  <path class="st1" d="M163.8,276.8h0c-.2-2.2-3.2-3.6-6.7-3.4s-6.3,2-6.4,4.1h0c0,.1-.6,25.2-.6,25.2,5.3.1,10.6,0,15.9-.5-.7-8.5-1.4-17-2.1-25.5h0Z"/>
  <path class="st1" d="M78,70.9c-1-2,0-4.8,3.2-7.1,3.2-2.3,6.3-2.2,8.1-1.1,0,0-12.4-17.9-17.4-25.1-4.8,3.2-9.3,6.7-13.5,10.5,5.7,6.5,19.5,22.8,19.5,22.8,0,0,0,0,.1,0Z"/>
  <path class="st3" d="M91.9,56.3h0c1.1,1.8,4.8,1.6,8.4-.2,3.6-1.9,6-4.8,5.2-6.7h0c0-.2,0,0,0,0-3.7-8.1-7.3-16.1-11-24.2,0,0-.2,0-.2.1-5.6,2.6-11.1,5.5-16.2,8.6l13.9,22.5h-.1Z"/>
  <path class="st0" d="M65.1,82.6c-1.5-1.4-1.3-4.5,1.3-7.1,2.6-2.6,5.8-3.4,7.3-1.9,0,0-14.2-15-20.2-21.1-3.9,3.7-7.5,7.6-10.9,11.6,6.4,5.4,22.4,18.5,22.4,18.5h0Z"/>
  <path class="st0" d="M39.4,190c-2,.5-4.4-1.7-5.2-4.9s.3-6.1,2.3-6.5h0c-8.7,1.5-17.4,3-26.1,4.5.8,4.7,1.9,9.4,3.1,14.1,8.6-2.4,17.2-4.7,25.8-7.1h.1Z"/>
  <path class="st3" d="M45,205.5c-1.9.7-4.5-1.1-5.7-4.2-1.2-3.1-.4-6.1,1.5-6.8h0c-8.5,2.7-17,5.4-25.5,8.1,1.5,4.6,3.1,9.1,5.1,13.5,8.2-3.5,16.4-7.1,24.7-10.6h0Z"/>
  <path class="st3" d="M44.2,120.9c-1-2.3-2-4.8-2.8-7.2-7.6-3-15.3-6-22.9-9-1.7,4.4-3.3,8.9-4.6,13.5,8,2.3,15.9,4.5,23.9,6.8,2.1-1.4,4.3-2.8,6.4-4.1h0Z"/>
  <path class="st3" d="M52.1,219.7c.4-2.5.9-5.1,1.5-7.5-2.3-.9-4.7-1.9-7-2.9-8.1,3.8-16.2,7.6-24.3,11.5,2.1,4.4,4.3,8.7,6.8,12.8l23-13.8h0Z"/>
  <path class="st0" d="M39.8,167.7c-1.9-1.7-3.7-3.5-5.5-5.4l-26,.9c.2,4.7.5,9.5,1.2,14.3,8.7-1.2,17.4-2.3,26.1-3.4,1.3-2.2,2.7-4.2,4.2-6.2h0v-.2h0Z"/>
  <path class="st3" d="M43.3,109.3h0c2,.8,4.6-.8,6-3.7,1.4-2.9,1.3-6-.6-7.1h0c-7.2-4.1-14.3-8.2-21.5-12.2-2.4,4.2-4.6,8.6-6.5,13l22.5,9.9h0Z"/>
  <path class="st3" d="M34.9,141.2h0c2.1.3,4.1-2,4.6-5.1s-.6-6-2.7-6.5h-.2c-8.1-2-16.1-4-24.2-5.9-1.1,4.6-2,9.2-2.7,13.9l25,3.6h.2Z"/>
  <path class="st3" d="M61.3,233.4h0c1.6-1.3,1.4-4.4-.4-7-1.8-2.6-4.6-3.8-6.3-2.7h0c-7.5,4.9-14.9,9.7-22.4,14.6,2.6,4.1,5.5,7.9,8.5,11.7,6.9-5.5,13.8-11.1,20.6-16.6h0Z"/>
  <path class="st0" d="M84.5,256.6c-1.3,1.6-4.4,1.4-6.9-.7-2.5-2.1-3.4-5.2-2-6.8h0c-5.7,6.5-11.3,13-17,19.5,3.6,3.1,7.3,6.1,11.2,8.8,4.9-6.9,9.9-13.8,14.8-20.7h0Z"/>
  <path class="st1" d="M71,244.2c-.2-2.6-.4-5.2-.4-7.7-2.5-.2-4.9-.6-7.5-1l-19.9,17.3c3.1,3.6,6.5,7.1,9.9,10.3l17.9-18.9h0Z"/>
  <path class="st0" d="M98.2,265.7h0c1-2-.4-4.8-3.1-6.4s-5.7-1.7-6.9,0h0v.2c-4.6,7-9.3,14.1-13.9,21.1,4,2.6,8,5,12.2,7.2,3.9-7.4,7.8-14.7,11.6-22h.1Z"/>
  <path class="st3" d="M129.4,277.3c-.5,2-3.6,3.1-6.9,2.3-3.3-.9-5.3-3.3-4.8-5.3h0c-2.5,7.8-5,15.6-7.5,23.4,4.6,1.5,9.3,2.7,14,3.7l5.2-24.1h0Z"/>
  <path class="st0" d="M176.1,271.6c-1.9,2.1-3.8,4.2-5.9,6.2l3.3,25.6c5.6-.7,11.2-1.8,16.7-3.2-2.1-8.5-4.2-17-6.3-25.5-2.7-1-5.3-2-7.8-3.2h0Z"/>
  <path class="st0" d="M203.6,267.5h0c-.9-2-4.7-2.2-8.4-.7-3.8,1.5-6.3,4.1-5.7,6.1h0v.2c2.5,8.4,5.1,16.9,7.6,25.3,5.9-1.8,11.7-3.9,17.4-6.5-3.6-8.1-7.2-16.2-10.8-24.3h-.1Z"/>
  <path class="st0" d="M50.6,86.2c2.7-.8,5.3-1.5,8-2.1l-19.8-15.2c-3.1,4-5.9,8.1-8.6,12.4,7,4.3,14,8.6,21,13-.3-2.6-.5-5.3-.7-8h.1Z"/>
  <path class="st1" d="M29.1,151.4c1.7-1.9,3.5-3.8,5.3-5.6-8.4-.9-16.9-1.7-25.3-2.6-.5,4.7-.8,9.4-.8,14.2,8.6,0,17.2,0,25.8.1-1.7-2-3.4-4-5-6.1h0Z"/>
  <path class="st3" d="M105.7,275.1c-1.2-2.4-2.4-4.8-3.4-7.2-3.6,7.5-7.1,14.9-10.7,22.4,4.3,2.1,8.7,3.9,13.2,5.5,2.8-7.7,5.6-15.4,8.4-23.1-2.4.9-4.9,1.7-7.5,2.4h0Z"/>
  <path class="st3" d="M139.8,284c-2-1.9-3.8-3.8-5.6-5.8-1.4,8.1-2.8,16.2-4.2,24.3,4.9.8,9.9,1.4,14.9,1.8.6-8.3,1.1-16.6,1.7-24.9-2.2,1.6-4.5,3.1-6.9,4.6h.1Z"/>
  <path class="st2" d="M54.3,101.6h0c1.8,1.1,2,4.1.6,6.8s-3.8,4.2-5.8,3.5h0c8.3,3.6,16.6,7.3,24.9,10.9,1.2-2.7,2.5-5.3,3.9-7.8-7.9-4.4-15.7-8.9-23.6-13.3h0Z"/>
  <path class="st2" d="M42.9,131h0c2,.6,3.1,3.3,2.6,6.2s-2.4,5-4.4,4.8h0l26.2,3.7c.4-2.8,1-5.6,1.6-8.4-8.7-2.1-17.4-4.2-26.1-6.3h0Z"/>
  <path class="st0" d="M59.8,220.3h0c1.8-1,4.4,0,6.1,2.5,1.7,2.4,1.8,5.3.3,6.7h0c6.6-5.3,13.2-10.6,19.7-15.9-1.8-2.2-3.5-4.6-5.1-7-7,4.6-14,9.2-21,13.7h0Z"/>
  <path class="st1" d="M90.7,252.5h0c1.2-1.6,4.1-1.6,6.5,0s3.7,4.2,2.9,6.1h0c4.2-7.9,8.3-15.8,12.5-23.7-2.5-1.3-5-2.8-7.4-4.3-4.9,7.4-9.7,14.8-14.6,22.1h0v-.2h0Z"/>
  <path class="st0" d="M151.9,273.1h0c.2-2.1,2.8-3.8,6-4s6,1.1,6.3,3.2h0c-.7-8.8-1.4-17.5-2.2-26.2-3.2.3-6.4.4-9.6.3-.2,8.9-.5,17.8-.7,26.6h.2Z"/>
  <path class="st1" d="M187.6,266.3h0c-.5-2,1.9-4.5,5.4-5.9s7.1-1.2,8,.7h0c-3.4-7.7-6.9-15.4-10.3-23.1-3.5,1.6-6.9,2.9-10.5,3.9,2.4,8.1,4.9,16.2,7.3,24.3h.1Z"/>
  <path class="st1" d="M41.7,175.8h0c-2.1.3-3.3,3.2-2.5,6.3s3.2,5.2,5.2,4.6h0c8.1-2.2,16.1-4.4,24.2-6.7-.8-2.8-1.4-5.6-1.9-8.5-8.3,1.4-16.7,2.9-25,4.3h0Z"/>
  <path class="st2" d="M46.7,192.6h0c-2,.6-2.8,3.6-1.7,6.6s3.8,4.7,5.7,3.9h0c7.6-3.3,15.3-6.6,22.9-9.9-1.2-2.7-2.2-5.4-3.1-8.2-8,2.5-15.9,5.1-23.9,7.6h.1Z"/>
  <path class="st1" d="M78.6,242.7h0v.2c-1.4,1.6-.7,4.7,1.8,6.7,2.4,2.1,5.5,2.2,6.7.5h0c5.1-7.1,10.2-14.3,15.3-21.4-2.3-1.7-4.6-3.4-6.7-5.3-5.7,6.5-11.4,13-17.1,19.5h0s0-.2,0-.2Z"/>
  <path class="st2" d="M119.7,268.2h0v.2c-.7,2,1.3,4.5,4.5,5.4,3.2.8,6.2-.4,6.6-2.5v-.2l5.7-26.5c-2.9-.6-5.7-1.4-8.5-2.2-2.8,8.6-5.5,17.2-8.3,25.8h0Z"/>
  <path class="st1" d="M63.7,88c-2.6.5-5.2,1.2-7.8,1.9.2,2.6.5,5.2.8,7.7,7.7,4.7,15.3,9.5,23,14.2,1.6-2.6,3.3-5.1,5.2-7.5-7.1-5.4-14.1-10.9-21.2-16.3h0Z"/>
  <path class="st0" d="M40.7,146.5c-1.8,1.7-3.6,3.4-5.3,5.3,1.6,2,3.3,4,5,5.8,8.7,0,17.3,0,26,.1,0-2.9.2-5.7.5-8.6-8.7-.9-17.5-1.8-26.2-2.7h0Z"/>
  <path class="st2" d="M116.7,237.9c-3.9,8.1-7.8,16.2-11.6,24.3.9,2.4,2,4.7,3.1,7,2.4-.8,4.8-1.6,7.2-2.5l9.3-25.5c-2.7-1-5.3-2.1-7.9-3.3h0Z"/>
  <path class="st2" d="M135.3,271.9c1.7,2,3.4,3.9,5.2,5.7,2.2-1.5,4.4-3,6.5-4.6.6-8.9,1.2-17.8,1.8-26.7-3-.2-6-.6-9-1.1-1.5,8.9-3.1,17.8-4.6,26.7h.1Z"/>
  <path class="st2" d="M72.6,125.9c-8.4-3.3-16.8-6.6-25.2-9.9.9,2.4,1.9,4.7,2.9,6.9-2.1,1.2-4.3,2.4-6.4,3.8,8.6,2.4,17.3,4.9,25.9,7.4.8-2.8,1.7-5.5,2.8-8.1h0Z"/>
  <path class="st1" d="M40.7,162c1.8,1.8,3.6,3.5,5.5,5.1-1.5,1.9-2.9,3.9-4.2,5.9l25.2-3.3c-.4-2.9-.6-5.7-.7-8.6-8.6.3-17.2.6-25.8.9h0Z"/>
  <path class="st2" d="M52.3,206.6c2.3,1,4.6,1.9,6.9,2.7-.6,2.4-1.2,4.8-1.7,7.2,7.2-4.3,14.3-8.6,21.5-12.9-1.5-2.5-2.8-5-4.1-7.7l-22.6,10.7h0Z"/>
  <path class="st0" d="M69,233c2.4.3,4.9.6,7.2.8,0,2.5,0,5,.2,7.5,5.9-6.3,11.8-12.5,17.7-18.8-2.1-2-4.1-4-6-6.2l-19.2,16.7h.1Z"/>
  <path class="st1" d="M169.3,270.9c1.9-2,3.8-4.1,5.5-6.2,2.4,1.2,4.8,2.3,7.4,3.3-2.1-8.3-4.1-16.5-6.2-24.8-3.3.8-6.7,1.5-10.1,1.9,1.1,8.6,2.2,17.2,3.3,25.8h.1Z"/>
  <path class="st3" d="M125,44.4c-.4-2,1.7-4.3,5-5.1s6.1.4,6.5,2.5h0c-1.4-8.8-2.9-19.1-4.3-28-4.7.7-9.4,1.7-14.1,2.9,2.2,8.7,4.7,18.9,7,27.7h0Z"/>
  <path class="st3" d="M109.4,49.6h.2c-.7-1.9,1.1-4.5,4.3-5.6,3.1-1.1,6.1-.3,6.8,1.6l-.5-1.5c-2.6-8.7-5.2-17.3-7.8-26-4.6,1.4-9.1,3-13.6,4.9,3.4,8.4,7.2,18.2,10.7,26.6h0Z"/>
  <path class="st3" d="M193.8,48.9c2.4-1,4.8-1.9,7.3-2.7,3.2-7.7,6.3-15.4,9.5-23.1-4.4-1.8-8.9-3.4-13.5-4.8-2.4,8-4.9,16.1-7.3,24.1,1.4,2.1,2.7,4.3,4,6.5h0Z"/>
  <path class="st0" d="M147,43.7c1.8-1.8,3.6-3.7,5.5-5.4-.1-8.8-.3-17.6-.5-26.4-4.8,0-9.5.4-14.3.9,1,8.8,2,17.7,3.1,26.5,2.1,1.4,4.2,2.8,6.2,4.3h0Z"/>
  <path class="st1" d="M173.7,39.2h0c-.3,2.2,1.9,4.2,5,4.8,3.1.5,6-.5,6.5-2.6v-.2c2.2-8.2,4.3-16.3,6.4-24.5-4.6-1.2-9.2-2.2-13.9-2.9-1.3,8.4-2.7,16.9-4,25.3h0Z"/>
  <path class="st0" d="M163.3,36c1.9,1.7,3.8,3.5,5.5,5.4,1-8.5,2.2-19.8,3.3-28.3-4.7-.6-9.5-.9-14.2-1-.2,8.7-.6,20.2-.8,28.9,2-1.7,4.1-3.3,6.2-4.9h0Z"/>
  <path class="st5" d="M204.9,158.6c0,27-21.9,48.8-48.8,48.8s-48.8-21.9-48.8-48.8,21.9-48.8,48.8-48.8,48.8,21.9,48.8,48.8"/>
  <path class="st7" d="M228.5,158.9c0,40.1-32.5,72.6-72.6,72.6s-72.6-32.5-72.6-72.6,32.5-72.6,72.6-72.6,72.6,32.5,72.6,72.6"/>
  <g>
    <path class="st8" d="M74.9,84.4c21.1-24,52.4-38.7,86.9-37.6,61.3,2,109.3,53.2,107.3,114.5"/>
    <path class="st8" d="M269.1,161.2c-1.4,43.2-27.3,79.8-63.9,97"/>
  </g>
  <path class="st9" d="M210.7,277.6c44.8-21,75.7-66.5,75.7-119.3s-33.2-101.4-80.4-121.4"/>
  <path class="st4" d="M212.4,24.9"/>
  <path class="st4" d="M213.7,291.1"/>
  <path class="st4" d="M215.9,290.1c49.7-23.1,84.1-73.4,84.1-131.8s-36.1-111.1-87.6-133.4"/>
  <path class="st6" d="M199.2,241.6c30.9-15,52.2-46.6,52.2-83.2h0c0-51.1-41.3-92.4-92.3-92.4s-53.1,12.5-70,32.2"/>
</svg>